<?xml version="1.0" encoding="utf-8"?>
<!-- Generator: Adobe Illustrator 25.4.1, SVG Export Plug-In . SVG Version: 6.00 Build 0)  -->
<svg version="1.1" id="Capa_1" xmlns="http://www.w3.org/2000/svg" xmlns:xlink="http://www.w3.org/1999/xlink" x="0px" y="0px"
	 viewBox="0 0 27 27" enable-background="new 0 0 27 27" xml:space="preserve">
<path fill="#FFFFFF" d="M20,27H7c-3.866,0-7-3.134-7-7V7c0-3.866,3.134-7,7-7h13c3.866,0,7,3.134,7,7v13C27,23.866,23.866,27,20,27z
	"/>
<g>
	<circle fill="#FF4713" cx="20.956" cy="21.885" r="1.406"/>
	<g>
		<path fill="#425CC7" d="M11.824,3.709l-3.744,0c-1.901,0-3.442,1.541-3.442,3.442v0c0,1.901,1.541,3.442,3.442,3.442h0.812
			c1.233,0,2.232,0.999,2.232,2.232v0c0,1.233-0.999,2.232-2.232,2.232H8.079c-1.901,0-3.441,1.541-3.441,3.441v0
			c0,1.901,1.542,3.443,3.444,3.441l3.832-0.003c4.861,0,8.834-3.806,9.1-8.601C21.308,8.044,17.126,3.709,11.824,3.709z"/>
		<circle fill="#FFC600" cx="8.083" cy="7.153" r="1.406"/>
		<circle fill="#54C8E8" cx="8.083" cy="18.497" r="1.406"/>
		<g>
			<path fill="#FFFFFF" d="M11.527,18.493L11.527,18.493c0-0.42,0.309-0.777,0.725-0.837c2.289-0.333,4.083-2.216,4.213-4.56
				c0.076-1.36-0.392-2.647-1.317-3.625c-0.776-0.82-1.787-1.336-2.9-1.491c-0.415-0.058-0.721-0.418-0.721-0.837v0
				c0-0.51,0.449-0.91,0.954-0.84c1.493,0.207,2.852,0.901,3.896,2.005c1.248,1.319,1.879,3.053,1.777,4.882
				c-0.175,3.156-2.582,5.692-5.653,6.141C11.988,19.405,11.527,19.011,11.527,18.493z"/>
		</g>
	</g>
</g>
</svg>
