<?xml version="1.0" encoding="utf-8"?>
<!-- Generator: Adobe Illustrator 25.4.1, SVG Export Plug-In . SVG Version: 6.00 Build 0)  -->
<svg version="1.1" id="Capa_2" xmlns="http://www.w3.org/2000/svg" xmlns:xlink="http://www.w3.org/1999/xlink" x="0px" y="0px"
	 viewBox="0 0 150 35.811" enable-background="new 0 0 150 35.811" xml:space="preserve">
<g>
	<g>
		<path fill="#425CC7" d="M35.368,33.157c-0.096-0.121-0.224-0.184-0.37-0.184c-0.075,0-0.155,0.022-0.256,0.074
			c-0.523,0.321-1.043,0.484-1.547,0.484c-0.696,0-1.27-0.253-1.753-0.774c-0.479-0.516-0.723-1.15-0.723-1.884
			c0-0.802,0.232-1.476,0.689-2.001c0.458-0.527,1.034-0.783,1.761-0.783c0.484,0,0.928,0.128,1.344,0.394
			c0.112,0.045,0.225,0.057,0.337,0.033c0.171-0.034,0.237-0.14,0.262-0.214l0.669-1.128c0.119-0.219,0.077-0.428-0.132-0.585
			c-0.822-0.484-1.673-0.73-2.531-0.73c-0.515,0-0.994,0.071-1.419,0.208c-0.86,0.244-1.609,0.724-2.226,1.426
			c-0.617,0.701-1.008,1.515-1.163,2.422c-0.051,0.361-0.077,0.683-0.077,0.958c0,0.383,0.069,0.855,0.206,1.407
			c0.24,0.885,0.709,1.655,1.395,2.287c0.687,0.634,1.488,1.027,2.38,1.165c0.291,0.052,0.569,0.079,0.828,0.079
			c1.132,0,2.157-0.361,3.062-1.083c0.079-0.079,0.12-0.186,0.12-0.311c0-0.109-0.032-0.197-0.082-0.245L35.368,33.157z"/>
		<path fill="#425CC7" d="M43.975,26.524c-0.746-0.443-1.577-0.667-2.469-0.667c-0.892,0-1.722,0.224-2.468,0.667
			c-0.745,0.442-1.345,1.048-1.782,1.802c-0.437,0.755-0.659,1.594-0.659,2.495c0,0.901,0.221,1.744,0.658,2.507
			c0.436,0.762,1.036,1.373,1.782,1.816h0c0.748,0.443,1.578,0.667,2.468,0.667c0.891,0,1.721-0.225,2.469-0.667
			c0.746-0.443,1.345-1.054,1.782-1.816c0.437-0.762,0.658-1.605,0.658-2.507c0-0.902-0.222-1.741-0.659-2.495
			C45.319,27.572,44.72,26.966,43.975,26.524z M38.956,30.821c0-0.715,0.251-1.344,0.747-1.87c0.5-0.53,1.074-0.788,1.754-0.788
			c0.341,0,0.719,0.097,1.123,0.289c0.399,0.189,0.741,0.487,1.016,0.885c0.273,0.396,0.411,0.894,0.411,1.483
			c0,0.732-0.251,1.366-0.746,1.882c-0.5,0.522-1.09,0.776-1.804,0.776c-0.697,0-1.275-0.253-1.766-0.775v0
			C39.203,32.188,38.956,31.554,38.956,30.821z"/>
		<path fill="#425CC7" d="M63.307,27.364L63.307,27.364c-0.367-0.512-0.886-0.904-1.539-1.165c-0.584-0.261-1.22-0.393-1.89-0.393
			c-0.687,0-1.349,0.15-1.968,0.446c-0.557,0.266-1.029,0.635-1.407,1.099c-0.339-0.433-0.797-0.789-1.364-1.062
			c-0.637-0.304-1.308-0.458-1.993-0.458c-0.638,0-1.23,0.133-1.758,0.396c-0.361,0.179-0.67,0.418-0.925,0.712l0.032-0.398
			c0-0.16-0.061-0.299-0.175-0.404c-0.112-0.102-0.248-0.154-0.403-0.154h-1.302c-0.159,0-0.293,0.054-0.396,0.159
			c-0.104,0.105-0.157,0.239-0.157,0.399v8.585c0,0.139,0.051,0.267,0.151,0.38c0.103,0.117,0.242,0.178,0.402,0.178h1.352
			c0.192,0,0.35-0.062,0.472-0.185c0.121-0.122,0.182-0.265,0.182-0.424v-5.793c0.17-0.391,0.434-0.688,0.785-0.885
			c0.368-0.205,0.776-0.31,1.214-0.31c0.563,0,1.054,0.16,1.458,0.474c0.398,0.31,0.592,0.726,0.592,1.272v5.293
			c0,0.162,0.059,0.298,0.175,0.405c0.113,0.102,0.24,0.154,0.378,0.154h1.352c0.187,0,0.351-0.059,0.487-0.176
			c0.143-0.123,0.216-0.269,0.216-0.433v-5.596c0-0.127,0.01-0.162,0.015-0.173c0.155-0.408,0.412-0.709,0.784-0.922
			c0.375-0.213,0.796-0.322,1.251-0.322c0.529,0,0.994,0.155,1.382,0.461c0.382,0.301,0.567,0.697,0.567,1.209v5.394
			c0,0.162,0.059,0.298,0.175,0.405c0.113,0.102,0.248,0.154,0.403,0.154h1.377c0.137,0,0.276-0.059,0.412-0.176
			c0.144-0.123,0.216-0.26,0.216-0.408v-6.229C63.861,28.386,63.675,27.879,63.307,27.364z"/>
	</g>
	<g>
		<g>
			<path fill="#425CC7" d="M26.61,19.163c-1.011-1.414-1.516-3.031-1.516-4.851c0-0.7,0.083-1.401,0.249-2.1
				c0.332-1.484,0.99-2.744,1.972-3.78c0.983-1.036,2.194-1.68,3.633-1.932c0.526-0.112,1.093-0.169,1.703-0.169
				c1.578,0,2.934,0.399,4.069,1.197c1.135,0.798,1.986,1.876,2.554,3.234c0.567,1.359,0.782,2.877,0.644,4.557
				c-0.028,0.14-0.09,0.259-0.187,0.357c-0.097,0.099-0.215,0.148-0.353,0.148H28.831c0.055,0.868,0.463,1.659,1.225,2.373
				c0.761,0.714,1.709,1.071,2.844,1.071c0.526,0,1.1-0.105,1.723-0.315c0.623-0.211,1.169-0.511,1.64-0.903l0.623-0.504
				c0.083-0.084,0.207-0.126,0.374-0.126c0.221,0,0.374,0.07,0.457,0.21c0.249,0.28,0.609,0.798,1.08,1.554
				c0.11,0.225,0.166,0.378,0.166,0.462c0,0.112-0.056,0.224-0.166,0.336c-0.554,0.561-1.322,1.086-2.304,1.575
				c-0.983,0.49-2.125,0.735-3.425,0.735c-0.692,0-1.481-0.112-2.367-0.336C28.983,21.508,27.62,20.577,26.61,19.163z
				 M36.886,12.883c-0.222-1.12-0.7-2.009-1.433-2.668c-0.734-0.657-1.613-0.987-2.637-0.987c-1.107,0-2.042,0.364-2.803,1.092
				c-0.762,0.729-1.184,1.597-1.267,2.605L36.886,12.883z"/>
		</g>
		<g>
			<path fill="#425CC7" d="M54.206,9.481v6.637c0,2.297,0.47,3.893,1.412,4.788c0.941,0.897,2.09,1.344,3.446,1.344
				c0.637,0,1.204-0.07,1.703-0.21c0.276-0.056,0.45-0.161,0.519-0.315c0.069-0.154,0.104-0.37,0.104-0.65
				c0.027-0.812-0.014-1.338-0.124-1.576c-0.111-0.238-0.332-0.328-0.664-0.273c-0.609,0-1.094-0.042-1.453-0.126
				c-0.36-0.084-0.692-0.384-0.996-0.903c-0.305-0.518-0.457-1.337-0.457-2.457V9.481h3.571c0.166,0,0.311-0.069,0.436-0.21
				c0.125-0.139,0.187-0.294,0.187-0.462V7.128c0-0.168-0.062-0.315-0.187-0.441c-0.124-0.126-0.27-0.189-0.436-0.189h-3.363V0.723
				c0-0.223-0.062-0.399-0.187-0.525c-0.125-0.126-0.298-0.19-0.519-0.19h-2.284c-0.194,0-0.36,0.064-0.498,0.19
				c-0.139,0.126-0.208,0.301-0.208,0.525v5.776V9.481z"/>
		</g>
		<g>
			<path fill="#425CC7" d="M73.139,7.044c0,0.112-0.028,0.253-0.083,0.42c-0.332,1.036-0.568,1.68-0.706,1.932
				c-0.139,0.253-0.332,0.378-0.581,0.378c-0.139,0-0.353-0.021-0.643-0.063c-0.291-0.042-0.602-0.063-0.934-0.063
				c-0.83,0-1.495,0.28-1.993,0.84c-0.498,0.561-0.789,1.092-0.872,1.596v9.241c0,0.504-0.291,0.756-0.872,0.756h-1.951
				c-0.194,0-0.353-0.07-0.477-0.21c-0.124-0.14-0.187-0.308-0.187-0.504V7.212c0-0.196,0.063-0.363,0.187-0.504
				c0.124-0.14,0.283-0.21,0.477-0.21h2.035c0.193,0,0.359,0.07,0.498,0.21c0.138,0.14,0.193,0.308,0.166,0.504l-0.124,1.554
				c0.498-0.812,1.128-1.427,1.889-1.848c0.761-0.42,1.543-0.63,2.346-0.63c0.415,0,0.858,0.07,1.329,0.211
				C72.973,6.583,73.139,6.765,73.139,7.044z"/>
		</g>
		<g>
			<path fill="#425CC7" d="M86.155,6.604c0.069-0.07,0.159-0.105,0.27-0.105h2.699c0.055,0,0.125,0.035,0.208,0.105
				s0.124,0.147,0.124,0.231v14.743c0,0.336-0.194,0.504-0.581,0.504h-2.367c-0.332,0-0.498-0.168-0.498-0.504l0.041-1.848
				c-0.664,0.756-1.474,1.372-2.429,1.848c-0.955,0.477-1.945,0.714-2.969,0.714c-1.384-0.028-2.651-0.413-3.799-1.155
				c-1.149-0.742-2.063-1.736-2.74-2.982c-0.679-1.246-1.017-2.584-1.017-4.012c0-1.427,0.339-2.737,1.017-3.927
				c0.678-1.19,1.591-2.135,2.74-2.835c1.148-0.7,2.415-1.064,3.799-1.093c1.218,0,2.311,0.267,3.28,0.798
				c0.968,0.533,1.702,1.218,2.2,2.058l-0.083-2.31C86.052,6.751,86.086,6.674,86.155,6.604z M77.166,16.559
				c0.415,0.742,0.976,1.338,1.681,1.785c0.706,0.448,1.474,0.672,2.304,0.672c0.858,0,1.647-0.224,2.367-0.672
				c0.72-0.447,1.287-1.043,1.703-1.785c0.415-0.742,0.623-1.533,0.623-2.373c0-1.288-0.457-2.38-1.37-3.277
				c-0.913-0.895-2.021-1.344-3.322-1.344c-1.273,0-2.36,0.448-3.259,1.344c-0.9,0.897-1.35,1.989-1.35,3.277
				C76.543,15.026,76.751,15.817,77.166,16.559z"/>
		</g>
		<g>
			<path fill="#425CC7" d="M104.009,7.339c1.176,0.7,2.11,1.666,2.802,2.898c0.692,1.233,1.038,2.605,1.038,4.117
				c0,1.428-0.347,2.745-1.038,3.948c-0.692,1.204-1.626,2.163-2.802,2.877c-1.177,0.714-2.457,1.084-3.841,1.113
				c-1.024,0-2.035-0.238-3.031-0.714c-0.996-0.476-1.813-1.092-2.45-1.848l0.124,1.848v0.042c0,0.141-0.056,0.253-0.166,0.336
				c-0.111,0.084-0.236,0.126-0.374,0.126h-2.367c-0.139,0-0.27-0.049-0.394-0.147c-0.124-0.098-0.187-0.217-0.187-0.357V0.597
				c0-0.139,0.062-0.273,0.187-0.399c0.125-0.126,0.256-0.19,0.394-0.19h2.367c0.138,0,0.263,0.064,0.374,0.19
				c0.11,0.126,0.166,0.259,0.166,0.399l-0.083,8.59c0.387-0.644,1.08-1.287,2.076-1.933c0.996-0.644,2.118-0.966,3.364-0.966
				C101.552,6.288,102.832,6.639,104.009,7.339z M96.389,17.735c0.914,0.939,1.993,1.407,3.239,1.407
				c1.218,0,2.276-0.468,3.176-1.407c0.899-0.937,1.35-2.022,1.35-3.255c0-1.372-0.443-2.534-1.329-3.487
				c-0.886-0.952-1.951-1.427-3.197-1.427s-2.325,0.476-3.239,1.427c-0.913,0.952-1.37,2.115-1.37,3.487
				C95.019,15.712,95.476,16.797,96.389,17.735z"/>
		</g>
		<g>
			<path fill="#425CC7" d="M122.092,6.604c0.069-0.07,0.159-0.105,0.27-0.105h2.699c0.055,0,0.124,0.035,0.207,0.105
				s0.124,0.147,0.124,0.231v14.743c0,0.336-0.194,0.504-0.581,0.504h-2.367c-0.332,0-0.498-0.168-0.498-0.504l0.041-1.848
				c-0.664,0.756-1.474,1.372-2.43,1.848c-0.955,0.477-1.944,0.714-2.969,0.714c-1.384-0.028-2.65-0.413-3.799-1.155
				c-1.149-0.742-2.062-1.736-2.74-2.982c-0.679-1.246-1.018-2.584-1.018-4.012c0-1.427,0.339-2.737,1.018-3.927
				c0.678-1.19,1.591-2.135,2.74-2.835c1.149-0.7,2.415-1.064,3.799-1.093c1.218,0,2.311,0.267,3.281,0.798
				c0.968,0.533,1.702,1.218,2.201,2.058l-0.083-2.31C121.988,6.751,122.022,6.674,122.092,6.604z M113.103,16.559
				c0.415,0.742,0.976,1.338,1.681,1.785c0.706,0.448,1.474,0.672,2.304,0.672c0.858,0,1.647-0.224,2.367-0.672
				c0.72-0.447,1.287-1.043,1.702-1.785c0.416-0.742,0.623-1.533,0.623-2.373c0-1.288-0.456-2.38-1.37-3.277
				c-0.913-0.895-2.021-1.344-3.321-1.344c-1.273,0-2.36,0.448-3.259,1.344c-0.9,0.897-1.35,1.989-1.35,3.277
				C112.48,15.026,112.687,15.817,113.103,16.559z"/>
		</g>
		<g>
			<path fill="#425CC7" d="M124.703,29.58c1.799-0.14,4.12-0.921,5.269-2.363c1.149-1.442,1.724-4.179,1.724-8.212V7.254
				c0-0.223-0.07-0.405-0.208-0.546c-0.139-0.14-0.319-0.21-0.539-0.21h-2.118c-0.194,0-0.36,0.07-0.499,0.21
				s-0.207,0.322-0.207,0.546v12.591c0,1.736-0.166,3.185-0.499,4.348c-0.332,1.161-2.061,1.701-3.113,1.617l0,0
				c-0.263,0-0.476,0.213-0.476,0.476v2.818c0,0.263,0.213,0.476,0.476,0.476H124.703z"/>
		</g>
		<g>
			<path fill="#425CC7" d="M128.228,0.714C128.685,0.238,129.231,0,129.868,0c0.664,0,1.232,0.246,1.702,0.735
				c0.47,0.491,0.706,1.072,0.706,1.744c0,0.644-0.228,1.19-0.685,1.638c-0.456,0.448-1.003,0.672-1.64,0.672
				c-0.664,0-1.232-0.232-1.702-0.693c-0.471-0.462-0.706-1.03-0.706-1.701C127.543,1.75,127.771,1.191,128.228,0.714z"/>
		</g>
		<g>
			<path fill="#425CC7" d="M146.699,6.604c0.069-0.07,0.159-0.105,0.27-0.105h2.699c0.055,0,0.124,0.035,0.207,0.105
				S150,6.751,150,6.835v14.743c0,0.336-0.194,0.504-0.581,0.504h-2.367c-0.332,0-0.498-0.168-0.498-0.504l0.041-1.848
				c-0.664,0.756-1.474,1.372-2.43,1.848c-0.955,0.477-1.944,0.714-2.969,0.714c-1.384-0.028-2.65-0.413-3.799-1.155
				c-1.149-0.742-2.062-1.736-2.74-2.982c-0.678-1.246-1.018-2.584-1.018-4.012c0-1.427,0.339-2.737,1.018-3.927
				c0.678-1.19,1.591-2.135,2.74-2.835s2.415-1.064,3.799-1.093c1.218,0,2.311,0.267,3.281,0.798
				c0.968,0.533,1.702,1.218,2.201,2.058l-0.083-2.31C146.596,6.751,146.63,6.674,146.699,6.604z M137.71,16.559
				c0.415,0.742,0.976,1.338,1.681,1.785c0.706,0.448,1.474,0.672,2.304,0.672c0.858,0,1.647-0.224,2.367-0.672
				c0.72-0.447,1.287-1.043,1.702-1.785c0.416-0.742,0.623-1.533,0.623-2.373c0-1.288-0.456-2.38-1.37-3.277
				c-0.913-0.895-2.021-1.344-3.321-1.344c-1.273,0-2.36,0.448-3.259,1.344c-0.9,0.897-1.35,1.989-1.35,3.277
				C137.087,15.026,137.294,15.817,137.71,16.559z"/>
		</g>
		<g>
			<path fill="#425CC7" d="M51.368,14.794c-0.913-0.798-2.132-1.407-3.654-1.827c-1.136-0.336-1.951-0.644-2.45-0.924
				c-0.498-0.28-0.747-0.658-0.747-1.135c0-0.588,0.208-1.029,0.623-1.323c0.415-0.294,0.927-0.441,1.536-0.441
				c0.498,0,0.976,0.112,1.433,0.336c0.457,0.225,0.81,0.546,1.059,0.967c0.166,0.224,0.401,0.336,0.706,0.336
				c0.332,0,0.664-0.084,0.996-0.252l1.163-0.504c0.276-0.139,0.415-0.308,0.415-0.504c0-0.027-0.028-0.126-0.083-0.294
				c-0.498-0.952-1.26-1.68-2.284-2.184c-1.024-0.504-2.132-0.756-3.322-0.756c-1.495,0-2.692,0.322-3.591,0.966
				c-0.9,0.645-1.489,1.386-1.765,2.226c-0.166,0.449-0.249,0.939-0.249,1.47c0,0.897,0.304,1.723,0.914,2.479
				c0.609,0.756,1.619,1.372,3.031,1.848c1.633,0.532,2.706,0.98,3.218,1.344s0.768,0.798,0.768,1.302
				c0,0.449-0.207,0.806-0.623,1.072c-0.415,0.266-0.914,0.399-1.495,0.399c-0.554,0-1.094-0.105-1.619-0.315
				c-0.526-0.21-0.955-0.539-1.287-0.987c-0.222-0.308-0.498-0.462-0.83-0.462c-0.249,0-0.54,0.084-0.872,0.252l-1.37,0.546
				c-0.194,0.084-0.291,0.238-0.291,0.462c0,0.28,0.152,0.616,0.457,1.008c0.692,0.785,1.55,1.38,2.574,1.785
				c1.024,0.406,2.076,0.609,3.156,0.609c1.522,0,2.837-0.371,3.944-1.113c1.107-0.742,1.703-1.757,1.786-3.045
				C52.697,16.706,52.282,15.592,51.368,14.794z"/>
		</g>
	</g>
	<circle fill="#FF4713" cx="23.1" cy="25.73" r="1.991"/>
	<g>
		<path fill="#425CC7" d="M10.173,0l-5.3,0C2.182,0,0,2.182,0,4.873v0c0,2.691,2.182,4.873,4.873,4.873h1.15
			c1.745,0,3.16,1.415,3.16,3.16v0c0,1.745-1.415,3.16-3.16,3.16H4.872C2.181,16.067,0,18.248,0,20.938v0
			c0,2.692,2.183,4.873,4.875,4.872l5.425-0.004c6.882,0,12.505-5.388,12.883-12.175C23.599,6.137,17.678,0,10.173,0z"/>
		<circle fill="#FFC600" cx="4.876" cy="4.876" r="1.991"/>
		<circle fill="#54C8E8" cx="4.876" cy="20.934" r="1.991"/>
		<g>
			<path fill="#FFFFFF" d="M9.752,20.928L9.752,20.928c0-0.595,0.437-1.099,1.026-1.185c3.24-0.471,5.779-3.138,5.964-6.456
				c0.107-1.925-0.555-3.747-1.864-5.131c-1.098-1.161-2.529-1.891-4.106-2.111c-0.587-0.082-1.021-0.591-1.021-1.184v0
				c0-0.722,0.636-1.288,1.351-1.189c2.114,0.293,4.037,1.276,5.516,2.838c1.766,1.867,2.659,4.321,2.515,6.911
				c-0.248,4.467-3.655,8.058-8.003,8.693C10.405,22.219,9.752,21.662,9.752,20.928z"/>
		</g>
	</g>
</g>
</svg>
