<svg id="variante_1" data-name="variante 1" xmlns="http://www.w3.org/2000/svg" viewBox="0 0 865.52 206.63"><defs><style>.cls-1{fill:#425cc7;}.cls-2{fill:#ff4713;}.cls-3{fill:#ffc600;}.cls-4{fill:#54c8e8;}.cls-5{fill:#fff;}</style></defs><title>logo_destrabaja_rgb_sinfondo</title><path class="cls-1" d="M320.13,642a2.65,2.65,0,0,0-2.13-1.06,3.1,3.1,0,0,0-1.48.43,17,17,0,0,1-8.92,2.78,13.18,13.18,0,0,1-10.12-4.46,15.53,15.53,0,0,1-4.17-10.87,17.12,17.12,0,0,1,4-11.56,12.73,12.73,0,0,1,10.16-4.51,14.16,14.16,0,0,1,7.76,2.28,3.14,3.14,0,0,0,1.89.22,1.82,1.82,0,0,0,1.51-1.22l3.86-6.51a2.43,2.43,0,0,0-.74-3.37h0a28.49,28.49,0,0,0-14.65-4.21,27.94,27.94,0,0,0-27.69,23.41,39.25,39.25,0,0,0-.44,5.52,34.77,34.77,0,0,0,1.18,8.12,27.55,27.55,0,0,0,8.06,13.2,25.7,25.7,0,0,0,13.73,6.66,27.25,27.25,0,0,0,4.78.45A27.7,27.7,0,0,0,324.37,651a2.51,2.51,0,0,0,.69-1.8,2,2,0,0,0-.48-1.41Z" transform="translate(-116.06 -450.63)"/><path class="cls-1" d="M369.8,603.69a28.27,28.27,0,0,0-28.5,0,29,29,0,0,0,0,49.73h0a28.31,28.31,0,0,0,28.5,0,28.91,28.91,0,0,0,0-49.73Zm-29,24.83a15.29,15.29,0,0,1,4.3-10.79,13.32,13.32,0,0,1,10.12-4.55,15.37,15.37,0,0,1,6.48,1.66A14.87,14.87,0,0,1,367.6,620a14.59,14.59,0,0,1,2.37,8.56,15.1,15.1,0,0,1-4.3,10.85,13.77,13.77,0,0,1-10.41,4.48,13.33,13.33,0,0,1-10.19-4.46h0A15.4,15.4,0,0,1,340.84,628.52Z" transform="translate(-116.06 -450.63)"/><path class="cls-1" d="M481.34,608.55h0a19.51,19.51,0,0,0-8.88-6.66,26.83,26.83,0,0,0-22.26.3,23.4,23.4,0,0,0-8.12,6.34,21.61,21.61,0,0,0-7.87-6.12,26.45,26.45,0,0,0-11.49-2.67A22.56,22.56,0,0,0,412.57,602a17.28,17.28,0,0,0-5.33,4.12l.19-2.31a3,3,0,0,0-1-2.33,3.4,3.4,0,0,0-2.33-.88h-7.51a3.09,3.09,0,0,0-2.28.91,3.14,3.14,0,0,0-.92,2.3v49.54a3.25,3.25,0,0,0,.88,2.19,3,3,0,0,0,2.32,1h7.8a3.71,3.71,0,0,0,2.73-1.07,3.41,3.41,0,0,0,1-2.45V619.6a10.58,10.58,0,0,1,4.54-5.12,14.16,14.16,0,0,1,7-1.78,13.37,13.37,0,0,1,8.42,2.74,8.74,8.74,0,0,1,3.41,7.34v30.53a3.09,3.09,0,0,0,1,2.35,3.22,3.22,0,0,0,2.18.88h7.81a4.29,4.29,0,0,0,2.81-1,3.24,3.24,0,0,0,1.23-2.5V620.73a3.07,3.07,0,0,1,.1-1,9.92,9.92,0,0,1,4.52-5.33,14.37,14.37,0,0,1,7.22-1.86,12.56,12.56,0,0,1,8,2.66,8.34,8.34,0,0,1,3.26,7V653.3a3.06,3.06,0,0,0,1,2.34,3.33,3.33,0,0,0,2.25.84h8a3.72,3.72,0,0,0,2.37-1,3.09,3.09,0,0,0,1.25-2.36v-36A15.09,15.09,0,0,0,481.34,608.55Z" transform="translate(-116.06 -450.63)"/><path class="cls-1" d="M269.6,561.21a46.93,46.93,0,0,1-8.75-28,52.67,52.67,0,0,1,1.44-12.13,45.58,45.58,0,0,1,11.38-21.82,36.89,36.89,0,0,1,21-11.14,47.77,47.77,0,0,1,9.83-1A39.8,39.8,0,0,1,327.94,494a42.17,42.17,0,0,1,14.74,18.64A55.83,55.83,0,0,1,346.42,539a4,4,0,0,1-1.08,2.07,2.71,2.71,0,0,1-2,.85H282.45q.48,7.51,7.07,13.69a23.07,23.07,0,0,0,16.42,6.18,31.45,31.45,0,0,0,9.93-1.81,29.45,29.45,0,0,0,9.47-5.21l3.59-2.92a2.94,2.94,0,0,1,2.16-.71,2.81,2.81,0,0,1,2.66,1.19,75,75,0,0,1,6.24,9,7.85,7.85,0,0,1,.95,2.66,2.87,2.87,0,0,1-.95,2A50.06,50.06,0,0,1,326.67,575a43.75,43.75,0,0,1-19.81,4.23,56.76,56.76,0,0,1-13.71-1.93A40.7,40.7,0,0,1,269.6,561.21ZM328.89,525a27,27,0,0,0-8.27-15.4,22.06,22.06,0,0,0-15.2-5.7,22.59,22.59,0,0,0-16.18,6.3,22.85,22.85,0,0,0-7.31,15Z" transform="translate(-116.06 -450.63)"/><path class="cls-1" d="M428.83,505.34v38.29q0,19.89,8.15,27.63A27.7,27.7,0,0,0,456.86,579a36.57,36.57,0,0,0,9.82-1.22,3.85,3.85,0,0,0,3-1.82,9.46,9.46,0,0,0,.6-3.76q.24-7-.72-9.09c-.64-1.39-1.92-1.89-3.83-1.57a39.32,39.32,0,0,1-8.39-.72c-2.08-.49-4-2.22-5.74-5.22s-2.67-7.71-2.67-14.17V505.34h20.6a3.25,3.25,0,0,0,2.52-1.22,3.87,3.87,0,0,0,1.08-2.66v-9.69a3.56,3.56,0,0,0-1.08-2.55,3.43,3.43,0,0,0-2.52-1.09H450.16V454.84a4.15,4.15,0,0,0-1.08-3,4,4,0,0,0-3-1.09H433a4.13,4.13,0,0,0-2.88,1.09,3.91,3.91,0,0,0-1.2,3v50.54Z" transform="translate(-116.06 -450.63)"/><path class="cls-1" d="M538.08,491.29a7.71,7.71,0,0,1-.48,2.42,84.93,84.93,0,0,1-4.07,11.15,3.72,3.72,0,0,1-3.36,2.18,28.94,28.94,0,0,1-3.71-.36,36.08,36.08,0,0,0-5.39-.37,14.64,14.64,0,0,0-11.5,4.85,19,19,0,0,0-5,9.21v53.26q0,4.36-5,4.37H488.24a3.5,3.5,0,0,1-2.75-1.21,4.19,4.19,0,0,1-1.08-2.92V492.25a4.22,4.22,0,0,1,1.08-2.91,3.53,3.53,0,0,1,2.75-1.21H500a3.92,3.92,0,0,1,2.87,1.21,3.29,3.29,0,0,1,1,2.91l-.72,9A29.43,29.43,0,0,1,514,490.57a27.78,27.78,0,0,1,13.52-3.65,27,27,0,0,1,7.67,1.21C537.12,488.63,538.08,489.66,538.08,491.29Z" transform="translate(-116.06 -450.63)"/><path class="cls-1" d="M613.18,488.71a2.08,2.08,0,0,1,1.56-.62h15.57a2,2,0,0,1,1.19.62,1.68,1.68,0,0,1,.72,1.33V575.1q0,2.91-3.34,2.91H615.22a2.54,2.54,0,0,1-2.88-2.18,3,3,0,0,1,0-.73l.24-10.66a45.16,45.16,0,0,1-14,10.66,37.77,37.77,0,0,1-17.12,4.15,41,41,0,0,1-22-6.66,46.51,46.51,0,0,1-15.82-17.2,47.63,47.63,0,0,1-5.87-23.14,45.26,45.26,0,0,1,21.69-39,43,43,0,0,1,21.91-6.3,38.81,38.81,0,0,1,18.93,4.61A32.54,32.54,0,0,1,613,503.41l-.48-13.32A1.83,1.83,0,0,1,613.18,488.71Zm-51.93,57.43a28.43,28.43,0,0,0,9.7,10.3,24.35,24.35,0,0,0,13.31,3.88,25.34,25.34,0,0,0,13.65-3.88,28.07,28.07,0,0,0,9.83-10.3,27.53,27.53,0,0,0,3.59-13.69,25.47,25.47,0,0,0-7.91-18.91,26.9,26.9,0,0,0-45.79,18.67v.21a27.6,27.6,0,0,0,3.69,13.76Z" transform="translate(-116.06 -450.63)"/><path class="cls-1" d="M716.19,493a44.25,44.25,0,0,1,16.18,16.72,47.69,47.69,0,0,1,6,23.76,44.83,44.83,0,0,1-6,22.78,45.84,45.84,0,0,1-16.18,16.61,43.67,43.67,0,0,1-22.15,6.4,39.89,39.89,0,0,1-17.49-4.13,41.66,41.66,0,0,1-14.14-10.65l.72,10.65v.26a2.31,2.31,0,0,1-1,1.93A3.42,3.42,0,0,1,660,578H646.35a3.54,3.54,0,0,1-2.26-.85,2.51,2.51,0,0,1-1.08-2.07v-121a3.23,3.23,0,0,1,1.08-2.3,3.14,3.14,0,0,1,2.26-1.09H660a2.81,2.81,0,0,1,2.16,1.09,3.42,3.42,0,0,1,1,2.3l-.48,49.57q3.36-5.58,12-11.16A35,35,0,0,1,694,486.92,42.55,42.55,0,0,1,716.19,493Zm-43.94,60a25.22,25.22,0,0,0,18.64,8.12A24.6,24.6,0,0,0,709.23,553,26.34,26.34,0,0,0,717,534.18,28.49,28.49,0,0,0,709.37,514a24.34,24.34,0,0,0-18.45-8.22A25.05,25.05,0,0,0,672.28,514a28,28,0,0,0-7.91,20.12A26.06,26.06,0,0,0,672.24,553Z" transform="translate(-116.06 -450.63)"/><path class="cls-1" d="M820.55,488.71a2,2,0,0,1,1.54-.62h15.58a2.06,2.06,0,0,1,1.2.62,1.71,1.71,0,0,1,.72,1.33V575.1q0,2.91-3.36,2.91H822.57a2.56,2.56,0,0,1-2.87-2.2,2.41,2.41,0,0,1,0-.71l.24-10.66a45.39,45.39,0,0,1-14,10.66,37.82,37.82,0,0,1-17.14,4.12,41.05,41.05,0,0,1-21.92-6.65,46.4,46.4,0,0,1-15.8-17.21,47.73,47.73,0,0,1-5.88-23.14,45.39,45.39,0,0,1,21.68-39,43.17,43.17,0,0,1,21.92-6.3,38.79,38.79,0,0,1,18.93,4.61,32.61,32.61,0,0,1,12.73,11.85L820,490A1.8,1.8,0,0,1,820.55,488.71Zm-51.93,57.43a28.35,28.35,0,0,0,9.7,10.3,24.38,24.38,0,0,0,13.32,3.88,25.37,25.37,0,0,0,13.66-3.88,28.07,28.07,0,0,0,9.83-10.3,27.63,27.63,0,0,0,3.58-13.69,25.49,25.49,0,0,0-7.9-18.91A26.91,26.91,0,0,0,765,532.21v.21a27.57,27.57,0,0,0,3.66,13.76Z" transform="translate(-116.06 -450.63)"/><path class="cls-1" d="M835.61,621.32C846,620.5,859.38,616,866,607.68S876,583.57,876,560.29v-67.8a4.3,4.3,0,0,0-1.2-3.15,4.15,4.15,0,0,0-3.11-1.21H859.42a3.94,3.94,0,0,0-2.88,1.21,4.33,4.33,0,0,0-1.19,3.15v72.65a92.6,92.6,0,0,1-2.87,25.08c-1.92,6.66-11.91,9.83-18,9.32h0a2.77,2.77,0,0,0-2.74,2.75v16.26a2.75,2.75,0,0,0,2.74,2.75Z" transform="translate(-116.06 -450.63)"/><path class="cls-1" d="M856,454.75a12.64,12.64,0,0,1,9.46-4.11,13.07,13.07,0,0,1,9.82,4.24,14,14,0,0,1,4.08,10.06,12.74,12.74,0,0,1-4,9.45,13,13,0,0,1-9.46,3.88,13.5,13.5,0,0,1-9.82-4,13.17,13.17,0,0,1-4.07-9.81A13.55,13.55,0,0,1,856,454.75Z" transform="translate(-116.06 -450.63)"/><path class="cls-1" d="M962.53,488.71a2.08,2.08,0,0,1,1.56-.62h15.57a2,2,0,0,1,1.19.62,1.68,1.68,0,0,1,.72,1.33V575.1q0,2.91-3.35,2.91H964.56a2.55,2.55,0,0,1-2.87-2.2,2.41,2.41,0,0,1,0-.71l.24-10.66a45.16,45.16,0,0,1-14,10.66,37.82,37.82,0,0,1-17.14,4.12,41,41,0,0,1-21.91-6.65,46.51,46.51,0,0,1-15.81-17.21,47.61,47.61,0,0,1-5.87-23.14,45.37,45.37,0,0,1,21.68-39,43.11,43.11,0,0,1,21.91-6.3,38.85,38.85,0,0,1,18.94,4.61,32.61,32.61,0,0,1,12.7,11.88l-.48-13.32A1.83,1.83,0,0,1,962.53,488.71ZM910.6,546.14a28.44,28.44,0,0,0,9.72,10.34,24.38,24.38,0,0,0,13.32,3.88,25.37,25.37,0,0,0,13.66-3.88,28.07,28.07,0,0,0,9.83-10.3,27.74,27.74,0,0,0,3.59-13.69,25.5,25.5,0,0,0-7.91-18.91A26.91,26.91,0,0,0,907,532.25v.21a27.53,27.53,0,0,0,3.64,13.72Z" transform="translate(-116.06 -450.63)"/><path class="cls-1" d="M412.45,536q-7.89-6.9-21.08-10.54a74.34,74.34,0,0,1-14.13-5.33q-4.31-2.43-4.31-6.55a8.73,8.73,0,0,1,3.59-7.63,14.77,14.77,0,0,1,8.86-2.54,18.4,18.4,0,0,1,8.27,1.93,14.2,14.2,0,0,1,6.11,5.58,4.82,4.82,0,0,0,4.07,1.94,12.72,12.72,0,0,0,5.76-1.46l6.65-2.91c1.6-.8,2.4-1.78,2.4-2.91a9.62,9.62,0,0,0-.48-1.69A28.7,28.7,0,0,0,405,491.29a42.73,42.73,0,0,0-19.17-4.37q-12.93,0-20.72,5.57t-10.19,12.85a24.5,24.5,0,0,0-1.44,8.48,22.33,22.33,0,0,0,5.33,14.3q5.32,6.55,17.5,10.65,14.11,4.61,18.56,7.77t4.43,7.51a7,7,0,0,1-3.59,6.17,15.71,15.71,0,0,1-8.63,2.31,25,25,0,0,1-9.32-1.83,16.69,16.69,0,0,1-7.43-5.68,5.73,5.73,0,0,0-4.79-2.67,11.58,11.58,0,0,0-5,1.47L352.58,557a2.67,2.67,0,0,0-1.68,2.66,10.21,10.21,0,0,0,2.67,5.81,38.3,38.3,0,0,0,14.86,10.31,49,49,0,0,0,18.15,3.51,40,40,0,0,0,22.77-6.42,22,22,0,0,0,10.3-17.55Q420.36,542.91,412.45,536Z" transform="translate(-116.06 -450.63)"/><circle class="cls-2" cx="133.29" cy="148.47" r="11.49"/><path class="cls-1" d="M174.75,450.64H144.13a28.1,28.1,0,0,0-28.07,28.12h0a28.11,28.11,0,0,0,28.11,28.11h6.67a18.24,18.24,0,0,1,18.23,18.24h0a18.24,18.24,0,0,1-18.26,18.19h-6.66a28.11,28.11,0,0,0-28.09,28.12v0h0a28.09,28.09,0,0,0,28.08,28.11h31.34a74.48,74.48,0,0,0,74.35-70.26C252.22,486,218.05,450.64,174.75,450.64Z" transform="translate(-116.06 -450.63)"/><circle class="cls-3" cx="28.14" cy="28.14" r="11.49"/><circle class="cls-4" cx="28.14" cy="120.79" r="11.49"/><path class="cls-5" d="M172.33,571.4h0a6.92,6.92,0,0,1,5.92-6.85,40.07,40.07,0,0,0,34.41-37.28,39.49,39.49,0,0,0-10.76-29.62,40,40,0,0,0-23.69-12.17,6.88,6.88,0,0,1-5.88-6.84h0a6.89,6.89,0,0,1,6.85-6.92,7.42,7.42,0,0,1,.94.06,53.72,53.72,0,0,1,.17,106.41,6.92,6.92,0,0,1-7.88-5.81A6.58,6.58,0,0,1,172.33,571.4Z" transform="translate(-116.06 -450.63)"/></svg>